<?xml version="1.0" encoding="UTF-8"?>
<svg width="24" height="24" viewBox="0 0 24 24" fill="#4A4238" xmlns="http://www.w3.org/2000/svg">
    <path d="M10,2v2H8v16h2v2h12V2H10z M20,20h-8v-2h2v-2h-2v-2h2v-2h-2v-2h2V8h-2V6h2V4h2v2h2v2h-2v2h2v2h-2v2h2v2h-2v2h2V20z"/>
    <rect x="13" y="6" width="2" height="2"/>
    <rect x="17" y="6" width="2" height="2"/>
    <rect x="13" y="10" width="2" height="2"/>
    <rect x="17" y="10" width="2" height="2"/>
    <rect x="13" y="14" width="2" height="2"/>
    <rect x="17" y="14" width="2" height="2"/>
</svg>
