<?xml version="1.0" encoding="iso-8859-1"?>
<!-- Generator: Adobe Illustrator 19.0.0, SVG Export Plug-In . SVG Version: 6.00 Build 0)  -->
<svg version="1.1" id="Layer_1" xmlns="http://www.w3.org/2000/svg" xmlns:xlink="http://www.w3.org/1999/xlink" x="0px" y="0px"
	 viewBox="0 0 512 512" style="enable-background:new 0 0 512 512;" xml:space="preserve">
	<path style="fill:#4A4238;" d="M469.333,512H42.667C19.14,512,0,492.86,0,469.333V42.667C0,19.14,19.14,0,42.667,0h426.667
		C492.86,0,512,19.14,512,42.667v426.667C512,492.86,492.86,512,469.333,512z"/>
	<path style="fill:#FFFFFF;" d="M384,170.667H128c-11.782,0-21.333,9.551-21.333,21.333v298.667h298.667V192
		C405.333,180.218,395.782,170.667,384,170.667z"/>
	<path style="fill:#D9D9D9;" d="M330.667,234.667h-149.33c-11.782,0-21.333,9.551-21.333,21.333v234.667h192V256
		C352,244.218,342.449,234.667,330.667,234.667z"/>
	<rect x="202.667" y="298.667" style="fill:#4A4238;" width="42.667" height="42.667"/>
	<rect x="266.667" y="298.667" style="fill:#4A4238;" width="42.667" height="42.667"/>
	<rect x="202.667" y="384" style="fill:#4A4238;" width="42.667" height="42.667"/>
	<rect x="266.667" y="384" style="fill:#4A4238;" width="42.667" height="42.667"/>
</svg>
